# xmcd
#
# Track frame offsets:
#	150
#	12447
#	26655
#	39592
#	52805
#	64565
#	75270
#	90122
#	103320
#	118082
#	131200
#	146620
#	159307
#	172830
#	184802
#	199542
#	211705
#	227120
#	241127
#	254940
#	269927
#	283777
#
# Disc length: 3953 seconds
#
# Revision: 0
# Processed by: cddbd v1.5.1PL2 Copyright (c) Steve Scherf et al.
# Submitted via: dBpowerAMP V4.0
#
DISCID=330f6f16
DTITLE=Elmore James - 1951-1953
DYEAR=1900
DGENRE=Blues
TTITLE0=Dust My Broom (I believe my time ain´t long)
TTITLE1=Please find my baby
TTITLE2=Hand in hand
TTITLE3=Long tall woman
TTITLE4=Rock my baby tonight
TTITLE5=My baby´s gone
TTITLE6=One more drink
TTITLE7=Baby what´s wrong
TTITLE8=I believe
TTITLE9=Sinful woman
TTITLE10=I held my baby last night
TTITLE11=Round house boogie
TTITLE12=Kickin´ the blues around
TTITLE13=Sax-ony boogie
TTITLE14=Dumb woman blues
TTITLE15=Country boogie (Tool bag boogie)
TTITLE16=My best friend
TTITLE17=I see my baby
TTITLE18=She won´t do right (Dust my broom)
TTITLE19=Whose muddy shoes
TTITLE20=Sweet little woman
TTITLE21=I may be wrong
EXTD=
EXTT0=
EXTT1=
EXTT2=
EXTT3=
EXTT4=
EXTT5=
EXTT6=
EXTT7=
EXTT8=
EXTT9=
EXTT10=
EXTT11=
EXTT12=
EXTT13=
EXTT14=
EXTT15=
EXTT16=
EXTT17=
EXTT18=
EXTT19=
EXTT20=
EXTT21=
PLAYORDER=
